<svg xmlns="http://www.w3.org/2000/svg" width="79.5" height="59.562" viewBox="0 0 79.5 59.562">
  <g id="Group_227" data-name="Group 227" transform="translate(-133.837 -97.852)">
    <path id="Path_68" data-name="Path 68" d="M198.165,127.633h6.2a7.722,7.722,0,0,0,0-15.443,9.235,9.235,0,0,1-9.235-9.235v-5.1" fill="none" stroke="#fff" stroke-miterlimit="10" stroke-width="2.5"/>
    <path id="Path_69" data-name="Path 69" d="M198.165,127.633a10.783,10.783,0,0,0-10.782-10.783h-5.564v21.565h5.564A10.782,10.782,0,0,0,198.165,127.633Z" fill="none" stroke="#fff" stroke-miterlimit="10" stroke-width="2.5"/>
    <path id="Path_70" data-name="Path 70" d="M149.01,127.633h-6.2a7.722,7.722,0,1,0,0,15.443,9.234,9.234,0,0,1,9.234,9.234v5.1" fill="none" stroke="#fff" stroke-miterlimit="10" stroke-width="2.5"/>
    <path id="Path_71" data-name="Path 71" d="M149.01,127.633a10.782,10.782,0,0,0,10.782,10.782h5.564V116.85h-5.564A10.783,10.783,0,0,0,149.01,127.633Z" fill="none" stroke="#fff" stroke-miterlimit="10" stroke-width="2.5"/>
    <line id="Line_31" data-name="Line 31" x2="7.957" transform="translate(165.356 122.995)" fill="none" stroke="#fff" stroke-miterlimit="10" stroke-width="2.5"/>
    <line id="Line_32" data-name="Line 32" x2="7.957" transform="translate(165.356 132.27)" fill="none" stroke="#fff" stroke-miterlimit="10" stroke-width="2.5"/>
  </g>
</svg>
