<svg xmlns="http://www.w3.org/2000/svg" width="59.193" height="67.358" viewBox="0 0 59.193 67.358">
  <g id="Group_228" data-name="Group 228" transform="translate(-38.663 -103.107)">
    <circle id="Ellipse_6" data-name="Ellipse 6" cx="4.349" cy="4.349" r="4.349" transform="translate(63.911 104.357)" fill="none" stroke="#fff" stroke-linecap="round" stroke-miterlimit="10" stroke-width="2.5"/>
    <line id="Line_23" data-name="Line 23" y2="8.481" transform="translate(68.26 113.054)" fill="none" stroke="#fff" stroke-miterlimit="10" stroke-width="2.5"/>
    <circle id="Ellipse_7" data-name="Ellipse 7" cx="4.349" cy="4.349" r="4.349" transform="translate(63.911 160.518)" fill="none" stroke="#fff" stroke-linecap="round" stroke-miterlimit="10" stroke-width="2.5"/>
    <line id="Line_24" data-name="Line 24" y1="8.481" transform="translate(68.26 152.038)" fill="none" stroke="#fff" stroke-miterlimit="10" stroke-width="2.5"/>
    <circle id="Ellipse_8" data-name="Ellipse 8" cx="4.349" cy="4.349" r="4.349" transform="translate(39.913 117.857)" fill="none" stroke="#fff" stroke-linecap="round" stroke-miterlimit="10" stroke-width="2.5"/>
    <line id="Line_25" data-name="Line 25" x2="7.248" y2="4.404" transform="translate(47.978 124.463)" fill="none" stroke="#fff" stroke-miterlimit="10" stroke-width="2.5"/>
    <circle id="Ellipse_9" data-name="Ellipse 9" cx="4.349" cy="4.349" r="4.349" transform="translate(87.909 147.019)" fill="none" stroke="#fff" stroke-linecap="round" stroke-miterlimit="10" stroke-width="2.5"/>
    <line id="Line_26" data-name="Line 26" x1="7.248" y1="4.404" transform="translate(81.294 144.706)" fill="none" stroke="#fff" stroke-miterlimit="10" stroke-width="2.5"/>
    <circle id="Ellipse_10" data-name="Ellipse 10" cx="4.349" cy="4.349" r="4.349" transform="translate(87.909 117.857)" fill="none" stroke="#fff" stroke-linecap="round" stroke-miterlimit="10" stroke-width="2.5"/>
    <line id="Line_27" data-name="Line 27" x1="7.248" y2="4.404" transform="translate(81.294 124.463)" fill="none" stroke="#fff" stroke-miterlimit="10" stroke-width="2.5"/>
    <circle id="Ellipse_11" data-name="Ellipse 11" cx="4.349" cy="4.349" r="4.349" transform="translate(39.913 147.019)" fill="none" stroke="#fff" stroke-linecap="round" stroke-miterlimit="10" stroke-width="2.5"/>
    <line id="Line_28" data-name="Line 28" y1="4.404" x2="7.248" transform="translate(47.978 144.706)" fill="none" stroke="#fff" stroke-miterlimit="10" stroke-width="2.5"/>
    <path id="Path_61" data-name="Path 61" d="M77.639,123.539,63.946,130.6l-13.693-7.061,13.693-7.061Z" transform="translate(4.313 5.056)" fill="none" stroke="#fff" stroke-linejoin="round" stroke-width="2.5"/>
    <path id="Path_62" data-name="Path 62" d="M73.608,137.842,59.916,144.9V128.521l13.693-7.061Z" transform="translate(8.344 7.135)" fill="none" stroke="#fff" stroke-linejoin="round" stroke-width="2.5"/>
    <path id="Path_63" data-name="Path 63" d="M50.253,137.842,63.946,144.9V128.521l-13.693-7.061Z" transform="translate(4.313 7.135)" fill="none" stroke="#fff" stroke-linejoin="round" stroke-width="2.5"/>
  </g>
</svg>
