<?xml version="1.0" encoding="UTF-8"?><svg id="Layer_1" xmlns="http://www.w3.org/2000/svg" viewBox="0 0 33.5 33.5"><defs><style>.cls-1{fill:#fff;}</style></defs><path class="cls-1" d="m16.8,33.5C7.52,33.5,0,25.98,0,16.7,0,12.25,1.77,7.97,4.92,4.82c6.61-6.51,17.25-6.42,23.76.19,6.43,6.54,6.43,17.03,0,23.56-3.14,3.16-7.42,4.93-11.88,4.92Zm4.5-15.58l.56-3.62h-3.47v-2.35c0-.99.49-1.96,2.04-1.96h1.58v-3.08s-1.43-.24-2.8-.24c-2.86,0-4.73,1.73-4.73,4.87v2.76h-3.18v3.62h3.18v8.75c.64.1,1.29.15,1.96.15s1.32-.05,1.96-.15v-8.75h2.92Z"/></svg>