<?xml version="1.0" encoding="UTF-8"?><svg id="Layer_1" xmlns="http://www.w3.org/2000/svg" viewBox="0 0 33.5 33.5"><defs><style>.cls-1{fill:#fff;}</style></defs><path class="cls-1" d="m28.68,5.02c-6.51-6.61-17.14-6.7-23.76-.19C1.77,7.97,0,12.25,0,16.7c0,9.28,7.52,16.8,16.8,16.8,4.46.01,8.74-1.76,11.88-4.92,6.43-6.54,6.43-17.03,0-23.56ZM12.06,24.26h-3.73v-11.98h3.73v11.98Zm-1.86-13.63c-1.2,0-2.16-.96-2.16-2.16s.96-2.16,2.16-2.16,2.16.96,2.16,2.16-.96,2.16-2.16,2.16Zm15.82,13.66h-3.73v-5.83c0-1.38-.03-3.17-1.94-3.17s-2.24,1.52-2.24,3.09v5.94h-3.73v-12.04h3.59v1.65h.05c.51-.93,1.7-1.94,3.51-1.94,3.78,0,4.47,2.48,4.47,5.72v6.58Z"/></svg>