<svg xmlns="http://www.w3.org/2000/svg" xmlns:xlink="http://www.w3.org/1999/xlink" width="99.736" height="24.322" viewBox="0 0 99.736 24.322">
  <defs>
    <clipPath id="clip-path">
      <path id="Clip_2" data-name="Clip 2" d="M0,0H14.044V11.56H0Z" transform="translate(0 0.337)" fill="none"/>
    </clipPath>
  </defs>
  <g id="Group_22" data-name="Group 22" transform="translate(0 -0.337)">
    <g id="Group_3" data-name="Group 3">
      <path id="Clip_2-2" data-name="Clip 2" d="M0,0H14.044V11.56H0Z" transform="translate(0 0.337)" fill="none"/>
      <g id="Group_3-2" data-name="Group 3" clip-path="url(#clip-path)">
        <path id="Fill_1" data-name="Fill 1" d="M1.984,11.549H.318c-.223,0-.363-.09-.305-.34.109-.471.206-.948.354-1.407a17.08,17.08,0,0,1,.671-1.82,23.329,23.329,0,0,1,1.1-2.137A25.591,25.591,0,0,1,5.968.9c.261-.268.539-.517.807-.778a.324.324,0,0,1,.509,0,21.043,21.043,0,0,1,3.05,3.238,31.5,31.5,0,0,1,2.142,3.215,16.332,16.332,0,0,1,1.1,2.612,10.8,10.8,0,0,1,.434,1.8c.089.516.019.566-.488.567-.915,0-1.83,0-2.745,0-.6,0-.6,0-.823-.568A3.051,3.051,0,0,0,6.145,9.068a2.988,2.988,0,0,0-2.018,1.88c-.28.674-.072.6-.848.61-.432,0-.864,0-1.3,0Z" transform="translate(0 0.337)" fill="#231f20"/>
      </g>
    </g>
    <path id="Fill_4" data-name="Fill 4" d="M2.073.008c.55,0,1.1-.014,1.651.011a.466.466,0,0,1,.332.24A3.761,3.761,0,0,0,5.515,2.123a3.287,3.287,0,0,0,1.809.456A3.153,3.153,0,0,0,10.134.907a2.306,2.306,0,0,0,.258-.6c.063-.243.207-.306.436-.3q1.6.006,3.207,0c.3,0,.442.125.377.417A11.809,11.809,0,0,1,14.1,1.654c-.192.568-.41,1.13-.653,1.678a12.608,12.608,0,0,1-.882,1.777,32.621,32.621,0,0,1-2.228,3.164c-.88,1.057-1.9,2-2.858,3-.158.164-.3.135-.462-.006A23.332,23.332,0,0,1,3.33,7.376,22.608,22.608,0,0,1,1.654,4.86,23.317,23.317,0,0,1,.517,2.248a14.511,14.511,0,0,1-.48-1.5A1.253,1.253,0,0,1,.026.194C.04.12.2.026.3.023.888.007,1.481.015,2.073.015Z" transform="translate(0 13.278)" fill="#231f20"/>
    <path id="Fill_6" data-name="Fill 6" d="M.584,14.542h0a.434.434,0,0,1-.324-.1.377.377,0,0,1-.087-.283.446.446,0,0,1,.419-.483l.017,0a1.631,1.631,0,0,0,.672-.218.75.75,0,0,0,.219-.536c.012-1.763.012-3.554.011-5.287v-1.2c0-1.378,0-2.8,0-4.209,0-.6-.218-.836-.8-.863l-.106,0-.107,0a.526.526,0,0,1-.433-.184A.566.566,0,0,1,.05.664.334.334,0,0,1,.293.49C1.056.4,1.832.323,2.583.246l.57-.058a.711.711,0,0,1,.073,0,.3.3,0,0,1,.231.081.4.4,0,0,1,.082.3,2.5,2.5,0,0,0,.024.568c.021.108.092.276.186.314a.189.189,0,0,0,.07.012.533.533,0,0,0,.28-.1c.155-.112.306-.237.453-.357A4.892,4.892,0,0,1,5.371.418,3.346,3.346,0,0,1,6.934,0a3,3,0,0,1,.914.147A3.4,3.4,0,0,1,9.732,1.462a6.534,6.534,0,0,1,.6,1.215l.022.054a6.351,6.351,0,0,1,.228,3.057v.006c-.011.121-.021.241-.031.362a4.674,4.674,0,0,1-.806,2.1,4.223,4.223,0,0,1-1.365,1.36,5.75,5.75,0,0,1-.972.434c-.152.057-.309.116-.46.179a3.937,3.937,0,0,1-1.546.252c-.156,0-.311,0-.461-.007s-.3-.006-.445-.006c-.088,0-.168,0-.243,0a.409.409,0,0,0-.45.467c0,.207,0,.416,0,.619,0,.368-.007.748.011,1.121.023.487.266,1.008.878,1.008q.042,0,.087,0l.074,0a1.324,1.324,0,0,1,.635.172.567.567,0,0,1,.126.487c-.02.09-.245.184-.391.187-.331.008-.683.012-1.142.012h-1.2l-.689,0H1.635c-.283,0-.656,0-1.031.008ZM5.816,1.791h0a3.1,3.1,0,0,0-.475.039,1.381,1.381,0,0,0-1.083.651,3.671,3.671,0,0,0-.434,1.308A8.471,8.471,0,0,0,3.8,5.047c0,.179.01.363.01.543s0,.374-.008.556a10.494,10.494,0,0,0,.025,1.309A2.453,2.453,0,0,0,4.215,8.6a2.029,2.029,0,0,0,1.514.565,1.558,1.558,0,0,0,.648-.118,2.955,2.955,0,0,0,1.7-2.481c.009-.075.024-.15.039-.223s.032-.161.041-.243.021-.176.033-.264a4.483,4.483,0,0,0,.056-.763,5.443,5.443,0,0,0-.183-1.05l-.024-.1A3.951,3.951,0,0,0,7.732,3,2.073,2.073,0,0,0,5.816,1.792Z" transform="translate(41.4 8.852)" fill="#231f20"/>
    <path id="Fill_8" data-name="Fill 8" d="M9.8,2.028c0,.428-.011.856,0,1.284.01.291-.111.4-.378.382a1.929,1.929,0,0,0-.272,0c-.286.02-.361-.125-.448-.405-.155-.505-.077-1.143-.6-1.471A2.349,2.349,0,0,0,6.29,1.441a8.706,8.706,0,0,0-1.253.4A2.753,2.753,0,0,0,3.747,2.97a5.859,5.859,0,0,0-.794,2.11A5.933,5.933,0,0,0,2.8,6.871a20.733,20.733,0,0,0,.424,2.178,4.078,4.078,0,0,0,1.264,2.1,4.355,4.355,0,0,0,1.673.926,3.649,3.649,0,0,0,1.635.191,11.962,11.962,0,0,0,1.646-.418c.191-.055.346-.085.4.158a8.586,8.586,0,0,1,.194,1.027.4.4,0,0,1-.207.317c-.367.129-.765.174-1.124.322a7.039,7.039,0,0,1-2.663.213,5.156,5.156,0,0,1-1.855-.453,6,6,0,0,1-2.072-1.282A6.546,6.546,0,0,1,.7,10.165,7.3,7.3,0,0,1,.033,6.3,12.992,12.992,0,0,1,.466,4.378a5.207,5.207,0,0,1,1.239-2.17A6.558,6.558,0,0,1,3.718.723,8.791,8.791,0,0,1,8.486.053,4.6,4.6,0,0,1,9.571.3a.463.463,0,0,1,.214.349c.025.458.01.918.01,1.377Z" transform="translate(18.191 5.69)" fill="#231f20"/>
    <path id="Fill_10" data-name="Fill 10" d="M2.817,10.749A3.615,3.615,0,0,1,2.2,10.7,2.486,2.486,0,0,1,.241,9.177,3.4,3.4,0,0,1,.1,7.049,2.961,2.961,0,0,1,1.73,5.036,6.468,6.468,0,0,1,3.306,4.5c.137-.034.279-.069.419-.106a3.159,3.159,0,0,1,.812-.08H4.9c.1,0,.175,0,.247,0,.422-.015.528-.121.541-.54.018-.616.038-1.313-.58-1.716a2.6,2.6,0,0,0-1.017-.408A5.068,5.068,0,0,0,3.369,1.6a5.254,5.254,0,0,0-.733.051,4.615,4.615,0,0,0-1.191.391.73.73,0,0,1-.282.08c-.123,0-.2-.078-.234-.245A7.836,7.836,0,0,1,.792.861L.783.767A.241.241,0,0,1,.912.579C1.274.461,1.633.358,1.98.271A8.275,8.275,0,0,1,4.019,0c.213,0,.426.01.633.03A3.386,3.386,0,0,1,7.279,1.271,3.128,3.128,0,0,1,7.9,3.031c.018.625.014,1.261.01,1.876,0,.27,0,.54,0,.81h.01q0,.42,0,.839v.019c0,.609,0,1.239,0,1.858,0,.578.275.883.783.883A1.483,1.483,0,0,0,8.888,9.3.631.631,0,0,1,8.97,9.3c.065,0,.106.01.113.027a9.474,9.474,0,0,1,.326.917.074.074,0,0,1-.017.051.341.341,0,0,1-.169.138c-.523.091-1.212.206-1.9.294a1.1,1.1,0,0,1-.136.009,1.243,1.243,0,0,1-.93-.48A.859.859,0,0,1,6.1,9.895c-.068-.275-.191-.42-.355-.42a.541.541,0,0,0-.346.174A3.761,3.761,0,0,1,2.817,10.749ZM5.272,5.44a.676.676,0,0,0-.106.009L5,5.475a8.947,8.947,0,0,0-.991.2,4.5,4.5,0,0,0-1.025.4,1.6,1.6,0,0,0-.749,1.294A1.706,1.706,0,0,0,2.47,8.5a1.391,1.391,0,0,0,1.32.673c.11,0,.228-.006.362-.019A1.582,1.582,0,0,0,5.658,7.558c.011-.151.008-.306.005-.455,0-.07,0-.139,0-.207h.007c0-.094,0-.188,0-.282V6.605c0-.227,0-.459,0-.688C5.655,5.6,5.519,5.44,5.272,5.44Z" transform="translate(90.327 8.852)" fill="#231f20"/>
    <path id="Fill_12" data-name="Fill 12" d="M2.852,10.749a2.863,2.863,0,0,1-1.014-.187A2.415,2.415,0,0,1,.632,9.767a2.879,2.879,0,0,1-.5-2.648A3.02,3.02,0,0,1,1.16,5.47a4.893,4.893,0,0,1,1.164-.645A7.438,7.438,0,0,1,3.778,4.4a6.839,6.839,0,0,1,1.08-.075c.11,0,.218,0,.325-.007.5-.015.658-.181.683-.709A1.891,1.891,0,0,0,4.014,1.633H4.008l-.288,0-.327,0c-.166,0-.3,0-.428-.01l-.089,0a3.177,3.177,0,0,0-1.387.427.7.7,0,0,1-.287.089c-.144,0-.217-.11-.255-.381A2.424,2.424,0,0,0,.8,1.253.585.585,0,0,1,.777.766.567.567,0,0,1,1.183.522C1.4.475,1.609.415,1.816.357A7.772,7.772,0,0,1,2.832.122,10.215,10.215,0,0,1,4.225,0a3.971,3.971,0,0,1,1.3.2c.108.037.218.07.326.1A4.042,4.042,0,0,1,6.5.533,2.361,2.361,0,0,1,7.7,1.841a7.727,7.727,0,0,1,.358,2.823c0,.234,0,.476.007.715,0,.194,0,.39,0,.58v.006h0c0,.089,0,.178,0,.266,0,.208,0,.418,0,.622,0,.49-.006,1,.008,1.493v.026c.008.317.018.677.371.84a1.055,1.055,0,0,0,.433.1l.054,0c.064,0,.13-.009.185-.009.232,0,.262.084.282.415,0,.041,0,.084,0,.126.019.555.019.565-.513.66l-.272.048a8.825,8.825,0,0,1-1.2.16l-.09,0A1.165,1.165,0,0,1,6.11,9.676a.281.281,0,0,0-.276-.235.473.473,0,0,0-.284.113c-.1.077-.2.161-.293.242a3.545,3.545,0,0,1-.787.555A3.887,3.887,0,0,1,2.852,10.749ZM5.3,5.454h0q-.036,0-.075,0a3.685,3.685,0,0,0-.538.1,3.686,3.686,0,0,1-.538.1A2.03,2.03,0,0,0,2.4,6.863a1.616,1.616,0,0,0,0,1.4,1.555,1.555,0,0,0,1.551.913c.075,0,.153,0,.233-.009A1.625,1.625,0,0,0,5.424,8.5,2.342,2.342,0,0,0,5.858,6.83c0-.1,0-.193,0-.279,0-.172,0-.319,0-.466-.01-.412-.2-.63-.554-.63Z" transform="translate(30.736 8.852)" fill="#231f20"/>
    <path id="Fill_14" data-name="Fill 14" d="M5.118,10.749a6.177,6.177,0,0,1-.82-.05A4.508,4.508,0,0,1,.6,8.311a4.487,4.487,0,0,1-.58-2.873c0-.121,0-.244-.01-.364a4.126,4.126,0,0,1,.02-.8A5.375,5.375,0,0,1,.841,2.228,4.65,4.65,0,0,1,2.632.594,4.276,4.276,0,0,1,4.6,0c.052,0,.1,0,.155,0s.113,0,.18,0l.2,0h.032c.074,0,.148,0,.221,0,.11,0,.2,0,.285.011A3.326,3.326,0,0,1,8.669,1.975a2.166,2.166,0,0,1,.107.891c0,.127,0,.258,0,.383A2.105,2.105,0,0,1,7.72,5.138a5.491,5.491,0,0,1-2.066.836,8.8,8.8,0,0,1-1.911.164l-.436,0H3.089c-.23,0-.352.031-.421.107s-.091.21-.066.465A2.53,2.53,0,0,0,4,8.627a3.482,3.482,0,0,0,1.835.493,4.782,4.782,0,0,0,.6-.039A4.481,4.481,0,0,0,7.721,8.7a1.036,1.036,0,0,1,.416-.118c.224,0,.34.164.365.515l0,.056a2.615,2.615,0,0,0,.052.413c.064.265-.039.453-.332.608a2.288,2.288,0,0,1-.576.242l-.189.041a11.407,11.407,0,0,1-1.449.254C5.679,10.735,5.387,10.749,5.118,10.749ZM4.8,1.117A2.282,2.282,0,0,0,2.889,2.442l-.03.07a4.776,4.776,0,0,0-.3.863,5.893,5.893,0,0,0-.115,1.172c0,.09.2.236.33.256a5.734,5.734,0,0,0,.71.055l.207.008c.13-.008.251-.01.367-.013A3.279,3.279,0,0,0,4.7,4.8a2.169,2.169,0,0,0,1.451-.856A1.748,1.748,0,0,0,6.4,2.348,1.837,1.837,0,0,0,4.9,1.121C4.863,1.118,4.829,1.117,4.8,1.117Z" transform="translate(61.472 8.852)" fill="#231f20"/>
    <path id="Fill_16" data-name="Fill 16" d="M1.6,7.065c0-.9-.008-1.807,0-2.711,0-.333-.128-.476-.469-.461-.285.012-.571,0-.856-.005-.217,0-.306-.111-.279-.319.013-.1.03-.206.041-.309.068-.7.068-.7.8-.7.775,0,.864-.091.868-.861,0-.228.021-.457.018-.685A.652.652,0,0,1,2.3.364c.461-.132.936-.215,1.4-.341.243-.067.3.019.3.234,0,.52,0,1.039,0,1.558,0,.582.17.747.749.748.635,0,1.27.012,1.9,0,.3-.008.38.1.381.382,0,.954.011.954-.964.954-.508,0-1.015,0-1.523,0-.377.006-.535.137-.537.5C4,5.991,3.966,7.581,4.026,9.168A1.715,1.715,0,0,0,4.8,10.657a1.831,1.831,0,0,0,1.762.248c.487-.22.658-.155.852.328.008.019.019.037.026.057.238.638-.033.96-.707,1.116a7.166,7.166,0,0,1-2.344.215A2.865,2.865,0,0,1,1.91,10.911a4.62,4.62,0,0,1-.291-1.573c-.047-.755-.012-1.516-.012-2.274Z" transform="translate(53.318 6.955)" fill="#231f20"/>
    <path id="Fill_18" data-name="Fill 18" d="M1.632,5.35c0-1-.01-2,0-3C1.646,1.59,1.36,1.3.543,1.3.287,1.3.008,1.321,0,.941-.007.514.011.492.474.451,1.406.37,2.336.273,3.267.186c.393-.037.453.017.472.387a5.782,5.782,0,0,0,.08.911c.028.132.2.238.3.355a3,3,0,0,0,.317-.26A4.4,4.4,0,0,1,6.315.163,3.341,3.341,0,0,1,7.673.016c.322.03.531.192.471.528-.09.508-.186,1.016-.311,1.516-.023.091-.19.186-.307.209a.942.942,0,0,1-.48-.021A2.718,2.718,0,0,0,5.4,2.273,1.751,1.751,0,0,0,4.251,3.4c-.078.643-.147,1.29-.166,1.936-.028.938-.019,1.877,0,2.815a1.568,1.568,0,0,0,.187.759,1,1,0,0,0,.554.351,4.14,4.14,0,0,0,.74.047.447.447,0,0,1,.472.5c0,.332-.251.3-.477.3q-2.447,0-4.893,0c-.236,0-.433-.01-.426-.314.007-.272,0-.517.406-.516a1.579,1.579,0,0,0,.6-.1.68.68,0,0,0,.38-.718V5.35Z" transform="translate(71.509 9.484)" fill="#231f20"/>
    <path id="Fill_20" data-name="Fill 20" d="M3.056,10.111c-.819,0-1.639,0-2.458,0-.273,0-.487-.056-.476-.356a.444.444,0,0,1,.452-.462c.1-.008.194-.01.29-.017.476-.031.738-.27.739-.71Q1.61,5.336,1.6,2.1a.746.746,0,0,0-.743-.765C.743,1.327.625,1.326.506,1.321.052,1.3-.027,1.207.007.778.023.577.118.5.328.481Q1.788.355,3.244.207c.331-.034.492.087.5.4.01.284,0,.571.039.852a1.5,1.5,0,0,0,.173.4,2.183,2.183,0,0,0,.459-.236A14.911,14.911,0,0,1,5.767.419,2.576,2.576,0,0,1,7.7.05c.41.076.532.338.4.734a4.541,4.541,0,0,0-.2.851c-.069.566-.242.719-.829.642a4.791,4.791,0,0,0-.69-.14c-1.266.032-2.306.582-2.339,2-.033,1.382-.01,2.764-.006,4.147,0,.7.289.97,1.033.994.129,0,.259.015.388.01.316-.011.438.142.454.426s-.085.4-.4.4c-.819-.015-1.638,0-2.457,0" transform="translate(80.918 9.484)" fill="#231f20"/>
  </g>
</svg>
