<svg xmlns="http://www.w3.org/2000/svg" xmlns:xlink="http://www.w3.org/1999/xlink" width="91.894" height="25.979" viewBox="0 0 91.894 25.979">
  <defs>
    <clipPath id="clip-path">
      <path id="Clip_2" data-name="Clip 2" d="M0,0H25.294V25.607H0Z" transform="translate(0 0.372)" fill="none"/>
    </clipPath>
    <clipPath id="clip-path-2">
      <path id="Clip_17" data-name="Clip 17" d="M0,0H.732V25.613H0Z" transform="translate(0.195 0.154)" fill="none"/>
    </clipPath>
  </defs>
  <g id="Group_19" data-name="Group 19" transform="translate(0 0)">
    <g id="Group_3" data-name="Group 3">
      <path id="Clip_2-2" data-name="Clip 2" d="M0,0H25.294V25.607H0Z" transform="translate(0 0.372)" fill="none"/>
      <g id="Group_3-2" data-name="Group 3" clip-path="url(#clip-path)">
        <path id="Fill_1" data-name="Fill 1" d="M20.463,15.456H15.189V10.824H25.226a28.612,28.612,0,0,1,.029,3.069A12.626,12.626,0,0,1,1.118,18.053,12.807,12.807,0,0,1,9.423.4,23.82,23.82,0,0,1,11.979.017c.455-.071.628.076.613.571-.035,1.074-.039,2.151,0,3.224.019.509-.182.638-.631.673a7.917,7.917,0,0,0-6.4,4.025,8.423,8.423,0,0,0,4.574,12.269,8.2,8.2,0,0,0,10.029-4.532c.1-.222.172-.458.3-.79" transform="translate(0 0.372)" fill="#231f20"/>
      </g>
    </g>
    <path id="Fill_4" data-name="Fill 4" d="M0,.016C.876.016,1.723,0,2.569.034c.118,0,.3.244.325.394.412,2.87.8,5.743,1.2,8.616a5.278,5.278,0,0,0,.27,1.26c.091-.556.167-1.115.274-1.668C5.175,5.878,5.716,3.122,6.278.37a.554.554,0,0,1,.4-.346C7.542-.008,8.414.016,9.284,0c.316,0,.432.148.482.442.3,1.792.633,3.58.922,5.374.218,1.352.387,2.711.583,4.067.022.151.079.3.163.6.175-1.41.3-2.663.492-3.906.312-2.048.667-4.089.994-6.134.052-.328.193-.456.524-.447.7.02,1.409.006,2.186.006-.208,1.07-.391,2.037-.585,3-.7,3.476-1.409,6.951-2.1,10.43-.069.347-.188.5-.547.5-.746-.017-1.492-.015-2.238,0-.323.007-.461-.1-.522-.445C9.13,10.673,8.6,7.86,8.085,5.044c-.064-.352-.108-.708-.183-1.2a2.653,2.653,0,0,0-.183.411c-.6,3.074-1.207,6.148-1.782,9.227-.071.38-.221.463-.554.456-.763-.016-1.528-.024-2.291,0-.392.014-.559-.12-.631-.519C1.966,10.673,1.45,7.931.939,5.188Q.488,2.771.036.355C.02.27.017.183,0,.016" transform="translate(66.264 5.069)" fill="#231f20"/>
    <path id="Fill_6" data-name="Fill 6" d="M.456,13.94h0a.459.459,0,0,1-.341-.1.561.561,0,0,1-.109-.417c.009-1.577.008-3.179.006-4.728q0-.86,0-1.72t0-1.721C.018,3.737.021,2.172,0,.634A.689.689,0,0,1,.131.124.563.563,0,0,1,.554,0l.08,0C1.31.028,2,.042,2.664.057,3.769.081,4.909.105,6.026.18A2.651,2.651,0,0,1,8.689,3.008c0,.277.014.558.031.83s.033.529.032.793C8.742,6.42,8.723,8.24,8.705,10l-.014,1.346c-.022,2.1-1.329,2.451-2.6,2.516-1.211.062-2.446.064-3.64.065-.647,0-1.314,0-1.971.012ZM3.437,2.176a.393.393,0,0,0-.293.1.672.672,0,0,0-.126.491c.014,1.854.012,3.739.01,5.561q0,.96,0,1.915V11.7c.2-.012.4-.02.582-.026a8.793,8.793,0,0,0,1.126-.089c.823-.137,1.091-.442,1.1-1.254.027-2.016.017-4.067.008-6.049l0-.992A.836.836,0,0,0,5.1,2.381c-.307-.051-.621-.087-.925-.122-.195-.023-.395-.046-.591-.072a1.085,1.085,0,0,0-.146-.011Z" transform="translate(83.143 5.069)" fill="#231f20"/>
    <path id="Fill_8" data-name="Fill 8" d="M8.352,13.94H8.346c-.455,0-.9,0-1.241,0H5.79c0-.064,0-.128,0-.192,0-.14,0-.285,0-.428q-.009-.444-.018-.887v-.039c-.022-1.094-.045-2.225-.077-3.339a.926.926,0,0,0-.868-.988c-.241-.032-.486-.058-.723-.083-.2-.021-.4-.042-.6-.067a1.052,1.052,0,0,0-.13-.009.394.394,0,0,0-.3.1.634.634,0,0,0-.12.469c.014,1.16.011,2.34.009,3.481q0,.666,0,1.331v.637H.027c0-.065-.007-.128-.011-.191C.008,13.6,0,13.466,0,13.335q0-1.8.005-3.6V9.733C.01,6.749.016,3.664,0,.628A.693.693,0,0,1,.137.122.582.582,0,0,1,.569,0H.64c.624.02,1.26.024,1.875.028,1.14.007,2.317.014,3.465.125,1.791.174,2.526.937,2.713,2.813a10.874,10.874,0,0,1-.085,2.2l-.023.218A1.492,1.492,0,0,1,7.23,6.762c-.111.021-.224.046-.333.071l-.13.029c-.01.038-.019.075-.028.112L6.9,7.04c.133.054.271.109.409.155A1.916,1.916,0,0,1,8.719,9.085c.022.9.023,1.811.024,2.694,0,.57,0,1.159.008,1.739a.439.439,0,0,1-.095.328A.407.407,0,0,1,8.352,13.94ZM3.322,2a.36.36,0,0,0-.274.094.513.513,0,0,0-.1.391c.015.345.012.7.009,1.038v.008c0,.155,0,.31,0,.465s0,.328,0,.492c0,.388,0,.788-.005,1.181A.443.443,0,0,0,3.04,6a.316.316,0,0,0,.237.079c.024,0,.05,0,.078,0,.209-.02.421-.03.627-.04s.4-.019.6-.037a.98.98,0,0,0,.993-.878A11.551,11.551,0,0,0,5.728,3.25c-.018-.672-.3-.985-1-1.114a8.438,8.438,0,0,0-.925-.1c-.131-.009-.266-.019-.4-.031C3.373,2,3.346,2,3.322,2Z" transform="translate(45.635 5.069)" fill="#231f20"/>
    <path id="Fill_10" data-name="Fill 10" d="M4.617,14.574a6.253,6.253,0,0,1-2.653-.589A3.123,3.123,0,0,1,.026,11.039C.01,9.72.01,8.378.01,7.08c0-1.1,0-2.231-.01-3.345A3.52,3.52,0,0,1,2.882.236,7.428,7.428,0,0,1,4.709,0a6.59,6.59,0,0,1,2.11.345A3.433,3.433,0,0,1,9.363,3.776c.018.814.014,1.641.01,2.442,0,.373,0,.756,0,1.132s0,.73,0,1.094c0,.8.009,1.617-.009,2.426a3.392,3.392,0,0,1-2.455,3.324A7.5,7.5,0,0,1,4.617,14.574ZM4.551,2.382c-.219,0-.412.008-.591.023-.737.064-1.054.378-1.06,1.049-.023,2.767-.022,5.277.005,7.675.009.761.255,1.015,1.053,1.09.134.013.272.019.423.019.193,0,.406-.011.651-.032.872-.075,1.13-.339,1.15-1.176C6.2,10.121,6.2,9.2,6.194,8.3c0-.388,0-.776,0-1.163s0-.756.006-1.125c.007-.89.014-1.807-.019-2.707-.023-.614-.316-.886-.978-.911-.207-.008-.428-.015-.647-.015Z" transform="translate(56.262 5.069)" fill="#231f20"/>
    <path id="Fill_12" data-name="Fill 12" d="M5.787,9.632H8.669c.336,2.453-.293,4.055-2.9,4.762A6.007,6.007,0,0,1,2.4,14.253,3.021,3.021,0,0,1,.061,11.274C-.005,8.551-.037,5.823.068,3.1A3.056,3.056,0,0,1,2.51.307,5.812,5.812,0,0,1,6.872.555,3.037,3.037,0,0,1,8.735,3.492C8.729,4.918,8.746,4.918,7.38,4.9c-.421-.007-.842-.022-1.263-.01-.278.008-.372-.117-.371-.386,0-.4-.008-.795-.023-1.192-.02-.537-.243-.893-.809-.939A3.474,3.474,0,0,0,4.5,2.306c-1.149.05-1.433.211-1.5,1.263-.049.792-.05,1.588-.045,2.381.013,1.769.021,3.538.081,5.306.023.7.343.931,1.028.949,1.468.038,1.741-.245,1.721-1.782,0-.25,0-.5,0-.792" transform="translate(35.007 5.069)" fill="#231f20"/>
    <path id="Fill_14" data-name="Fill 14" d="M2.446,8.083H5.388c.834,0,.839,0,.81.882-.008.238.077.54-.352.539-1.907,0-3.814,0-5.74,0A.97.97,0,0,1,.318,8.44c1.289-1.492,2.558-3,3.828-4.505a3.1,3.1,0,0,0,.367-.549,1.355,1.355,0,0,0-.282-1.87A1.839,1.839,0,0,0,2,1.532a8.866,8.866,0,0,0-.849,1.117L0,2.446A3.2,3.2,0,0,1,2.113.119c1.581-.458,3.8.434,4.1,2.246A2.312,2.312,0,0,1,5.732,4.27c-.857,1.053-1.786,2.05-2.7,3.055a4.859,4.859,0,0,1-.7.535l.113.223" transform="translate(15.003)" fill="#231f20"/>
    <g id="Group_18" data-name="Group 18" transform="translate(30.006)">
      <path id="Clip_17-2" data-name="Clip 17" d="M0,0H.732V25.613H0Z" transform="translate(0.195 0.154)" fill="none"/>
      <g id="Group_18-2" data-name="Group 18" clip-path="url(#clip-path-2)">
        <path id="Fill_16" data-name="Fill 16" d="M0,12.8Q0,6.675,0,.547c0-.257-.07-.6.346-.54C.482.027.611.2.7.338.749.412.712.547.712.655q0,12.147-.006,24.3c0,.245.157.62-.3.659-.233.019-.418-.026-.4-.336.008-.142,0-.286,0-.43Z" transform="translate(0.195 0.154)" fill="#231f20"/>
      </g>
    </g>
  </g>
</svg>
