<svg xmlns="http://www.w3.org/2000/svg" xmlns:xlink="http://www.w3.org/1999/xlink" width="69.454" height="19.339" viewBox="0 0 69.454 19.339">
  <defs>
    <clipPath id="clip-path">
      <path id="Clip_2" data-name="Clip 2" d="M0,0H13.8V15.677H0Z" transform="translate(0 0.003)" fill="none"/>
    </clipPath>
    <clipPath id="clip-path-2">
      <path id="Clip_7" data-name="Clip 7" d="M0,0H10.889V15.647H0Z" transform="translate(0.411 0.414)" fill="none"/>
    </clipPath>
    <clipPath id="clip-path-3">
      <path id="Clip_16" data-name="Clip 16" d="M0,0H3.9V3.917H0Z" transform="translate(0.34 0.401)" fill="none"/>
    </clipPath>
  </defs>
  <g id="Group_20" data-name="Group 20" transform="translate(0 0)">
    <g id="Group_3" data-name="Group 3">
      <path id="Clip_2-2" data-name="Clip 2" d="M0,0H13.8V15.677H0Z" transform="translate(0 0.003)" fill="none"/>
      <g id="Group_3-2" data-name="Group 3" clip-path="url(#clip-path)">
        <path id="Fill_1" data-name="Fill 1" d="M10.142,9.471c-.3,0-.609.012-.916,0A7.781,7.781,0,0,1,8,9.363a1.361,1.361,0,0,1-1.238-1.67,1.111,1.111,0,0,1,.677-1.044A2.952,2.952,0,0,1,8.48,6.384c1.162-.034,2.326-.042,3.488-.009,1.227.035,1.788.649,1.828,1.9a8.042,8.042,0,0,1-.374,2.971,6.109,6.109,0,0,1-4.853,4.263,6.7,6.7,0,0,1-6.63-2.046A7.321,7.321,0,0,1,.175,9.654,9.538,9.538,0,0,1,.753,4.04,6.432,6.432,0,0,1,6.14.091,8.489,8.489,0,0,1,10.3.485a4.177,4.177,0,0,1,1.907,1.3,2.6,2.6,0,0,1,.534,1.171,1.407,1.407,0,0,1-2.084,1.5c-.506-.236-.973-.564-1.492-.759a5.715,5.715,0,0,0-1.674-.411,3.3,3.3,0,0,0-3.64,2.686,6.56,6.56,0,0,0,.184,4.185,3.414,3.414,0,0,0,4.523,2.034,2.636,2.636,0,0,0,1.584-2.717" transform="translate(0 0.003)" fill="#231f20"/>
      </g>
    </g>
    <path id="Fill_4" data-name="Fill 4" d="M1.633,15.568H1.546A1.333,1.333,0,0,1,.162,14.373a7.083,7.083,0,0,1-.153-1.428C0,9.882,0,6.532.007,2.7A9.208,9.208,0,0,1,.118,1.492V1.486A1.424,1.424,0,0,1,1.153.158a2.073,2.073,0,0,1,.53-.074A1.441,1.441,0,0,1,2.831.638c.067.08.139.157.2.219l.056.059c.211-.1.409-.2.6-.3A4.866,4.866,0,0,1,4.843.123,4.859,4.859,0,0,1,5.907,0a4.319,4.319,0,0,1,3.47,1.826,6.246,6.246,0,0,1,1.208,4.231A6.317,6.317,0,0,1,8.869,10.1a4.636,4.636,0,0,1-3.213,1.314,3.528,3.528,0,0,1-2.009-.585,1.263,1.263,0,0,0-.181-.094c-.047-.022-.1-.047-.172-.082-.007.094-.013.183-.02.267-.015.193-.027.358-.035.528-.014.306-.022.617-.03.917-.016.643-.033,1.308-.114,1.954A1.3,1.3,0,0,1,1.633,15.568ZM5.262,3a1.893,1.893,0,0,0-1.512.786A2.874,2.874,0,0,0,3.213,5.7a2.963,2.963,0,0,0,.493,1.9A1.874,1.874,0,0,0,6.8,7.623,3.513,3.513,0,0,0,6.746,3.76,1.878,1.878,0,0,0,5.262,3Z" transform="translate(54.621 3.277)" fill="#231f20"/>
    <g id="Group_8" data-name="Group 8" transform="translate(43.207 3.277)">
      <path id="Clip_7-2" data-name="Clip 7" d="M0,0H10.889V15.647H0Z" transform="translate(0.411 0.414)" fill="none"/>
      <g id="Group_8-2" data-name="Group 8" clip-path="url(#clip-path-2)">
        <path id="Fill_6" data-name="Fill 6" d="M1.671,15.647c-.056,0-.113,0-.172-.005a1.3,1.3,0,0,1-1.3-.985,4.788,4.788,0,0,1-.191-1.283C0,9.879,0,6.274.009,2.352a4.394,4.394,0,0,1,.15-1.143A1.494,1.494,0,0,1,1.607.06a1.641,1.641,0,0,1,1.055.4c.134.111.257.23.365.336L3.138.9c.221-.1.429-.2.629-.3A5.822,5.822,0,0,1,4.977.118,4.48,4.48,0,0,1,5.993,0,4.745,4.745,0,0,1,9.95,2.253,6.731,6.731,0,0,1,9.68,9.512a5.017,5.017,0,0,1-3.858,2,3.874,3.874,0,0,1-2.169-.655.4.4,0,0,0-.149-.044c-.044-.008-.1-.018-.168-.034,0,.1,0,.2,0,.3,0,.2,0,.39,0,.578-.01.238-.016.481-.023.716-.017.621-.035,1.261-.108,1.886A1.4,1.4,0,0,1,1.671,15.647ZM5.356,3.014a1.913,1.913,0,0,0-1.648.96A3.312,3.312,0,0,0,3.69,7.5a1.879,1.879,0,0,0,1.645.984,2.074,2.074,0,0,0,1.524-.7,2.718,2.718,0,0,0,.649-2.056,2.751,2.751,0,0,0-.577-1.939A2.037,2.037,0,0,0,5.356,3.014Z" transform="translate(0.411 0.414)" fill="#231f20"/>
      </g>
    </g>
    <path id="Fill_9" data-name="Fill 9" d="M11.346,14.749a1.5,1.5,0,0,1-1.318-.722,6.191,6.191,0,0,1-.452-1c-.03-.079-.061-.158-.091-.236-.077-.193-.136-.389-.2-.615-.032-.1-.065-.214-.1-.331H3.722c-.047.125-.093.255-.138.38-.1.283-.2.573-.325.854l-.046.108a4.771,4.771,0,0,1-.5.967,1.392,1.392,0,0,1-1.153.578,1.683,1.683,0,0,1-.484-.073A1.385,1.385,0,0,1,0,13.366a3.665,3.665,0,0,1,.2-1.319C1.415,8.815,2.629,5.672,3.975,2.191A5.632,5.632,0,0,1,4.522,1.11,2.47,2.47,0,0,1,6.58,0,2.439,2.439,0,0,1,8.559,1.006a4.6,4.6,0,0,1,.594,1.133c1.323,3.573,2.634,7.172,3.629,9.908a4.689,4.689,0,0,1,.244.963,1.405,1.405,0,0,1-1,1.617A2.054,2.054,0,0,1,11.346,14.749ZM6.557,3.8l-.081.009-.072.008c-.332.961-.663,1.922-1,2.9L5.4,6.735,4.7,8.761h3.45C7.629,6.993,7.108,5.371,6.557,3.8Z" transform="translate(30.164)" fill="#231f20"/>
    <path id="Fill_11" data-name="Fill 11" d="M5.653,11.471A5.552,5.552,0,0,1,1.334,9.555,5.375,5.375,0,0,1,.028,6.417,5.916,5.916,0,0,1,1.012,2.3,5.109,5.109,0,0,1,5.31,0,6.808,6.808,0,0,1,6.5.11a5.046,5.046,0,0,1,4.013,4.06,6.317,6.317,0,0,1,.08,1.363c-.016.71-.288,1-1,1.05-.221.017-.447.017-.665.017H6.231c-.767,0-1.438,0-2.053,0-.17,0-.342.014-.525.028-.094.007-.191.015-.293.021A2.2,2.2,0,0,0,5.608,8.572a2.933,2.933,0,0,0,.469-.039,7.4,7.4,0,0,0,1.3-.381l.005,0,.207-.074C7.8,8,8,7.912,8.2,7.823s.388-.173.586-.244a1.154,1.154,0,0,1,1.263.3,1.046,1.046,0,0,1,.262,1.258,3.284,3.284,0,0,1-.847,1.127A6.433,6.433,0,0,1,5.653,11.471ZM5.409,2.647a1.859,1.859,0,0,0-2,1.753,9.052,9.052,0,0,0,1.978.145A8.976,8.976,0,0,0,7.351,4.4,1.79,1.79,0,0,0,5.505,2.649Z" transform="translate(14.674 3.277)" fill="#231f20"/>
    <path id="Fill_13" data-name="Fill 13" d="M1.866,6.715C.395,6.352.014,6.033,0,5.229s.321-1.1,1.821-1.553c.014-.279.019-.587.047-.891a12.064,12.064,0,0,1,.185-1.656A1.315,1.315,0,0,1,3.561,0,1.315,1.315,0,0,1,4.938,1.207a10.793,10.793,0,0,1,.145,1.443c.021.334,0,.672,0,1.067.3.036.531.046.755.1a2.965,2.965,0,0,1,.806.242,1.25,1.25,0,0,1,.683,1.26,1.234,1.234,0,0,1-.946,1.145c-.381.109-.782.148-1.244.23-.017.258-.049.515-.05.771,0,1.6.008,3.2-.009,4.8a6.229,6.229,0,0,1-.15,1.3,1.392,1.392,0,0,1-1.482,1.188,1.47,1.47,0,0,1-1.433-1.271,8.714,8.714,0,0,1-.143-1.444c-.018-1.5-.007-3.009-.007-4.513Z" transform="translate(24.457 0.819)" fill="#231f20"/>
    <g id="Group_17" data-name="Group 17" transform="translate(65.219 1.639)">
      <path id="Clip_16-2" data-name="Clip 16" d="M0,0H3.9V3.917H0Z" transform="translate(0.34 0.401)" fill="none"/>
      <g id="Group_17-2" data-name="Group 17" clip-path="url(#clip-path-3)">
        <path id="Fill_15" data-name="Fill 15" d="M1.936,3.917H1.922A1.913,1.913,0,0,1,.561,3.329,1.946,1.946,0,0,1,0,1.93,2.02,2.02,0,0,1,1.905,0h.019A2.012,2.012,0,0,1,3.346.626a1.938,1.938,0,0,1,.549,1.414A2.021,2.021,0,0,1,1.936,3.917Zm0-3.4h0A1.5,1.5,0,0,0,.858.956,1.412,1.412,0,0,0,.453,1.978a1.544,1.544,0,0,0,1.49,1.485h.017A1.434,1.434,0,0,0,3.377,2a1.47,1.47,0,0,0-.4-1.082A1.42,1.42,0,0,0,1.941.515Z" transform="translate(0.34 0.401)" fill="#231f20"/>
      </g>
    </g>
    <path id="Fill_18" data-name="Fill 18" d="M1.255,1.031c.073.175.146.35.239.573-.6.049-.54-.452-.926-.563-.082.206-.161.4-.24.6l-.2-.018A3.433,3.433,0,0,1,.036.14c.7-.212,1.251-.179,1.483.07.2.215.142.4-.264.821" transform="translate(66.849 2.458)" fill="#231f20"/>
  </g>
</svg>
