<svg xmlns="http://www.w3.org/2000/svg" xmlns:xlink="http://www.w3.org/1999/xlink" width="114.984" height="19.724" viewBox="0 0 114.984 19.724">
  <defs>
    <clipPath id="clip-path">
      <path id="Clip_4" data-name="Clip 4" d="M0,0H13.01V19.7H0Z" transform="translate(0 0.43)" fill="none"/>
    </clipPath>
  </defs>
  <g id="Group_30" data-name="Group 30" transform="translate(0 -0.629)">
    <path id="Fill_1" data-name="Fill 1" d="M.236,19.686c-.02,0-.044,0-.07,0s-.067-.007-.1-.007c-.006-.051-.014-.1-.022-.149a2,2,0,0,1-.033-.3q0-2.487,0-4.973c0-3.258,0-6.626-.007-9.946A1.382,1.382,0,0,1,.445,3.243c.813-.8,1.67-1.662,2.779-2.79A1.3,1.3,0,0,1,4.2,0h.009C4.87.005,5.589.008,6.475.008H9.122l3.953,3.972v3.18c0,.128,0,.256,0,.385,0,.291-.008.591.009.886a1.3,1.3,0,0,1-.444,1.062c-.72.71-1.444,1.44-2.143,2.146l-.591.6c-.068.068-.133.14-.2.217l-.079.087,5.9,5.928-.22.422H14.04c-.215,0-.434,0-.646,0s-.431,0-.647,0c-.324,0-.591.006-.839.018l-.114,0a1.482,1.482,0,0,1-1.18-.53c-.245-.276-.513-.538-.773-.791-.116-.113-.236-.23-.352-.347l-5.181-5.2-.3-.3,0,0-.235-.234v4.78l-.608.6c-.938.92-1.908,1.872-2.868,2.8A.08.08,0,0,1,.236,19.686ZM3.8,3.92c-.1.909-.078,6.654.032,7.147.69-.7,1.376-1.391,1.991-2.011a4.929,4.929,0,0,1,1.592-.215c.153,0,.308,0,.445.006s.292.005.436.005a5.548,5.548,0,0,0,.877-.057V3.92Z" transform="translate(14.859 0.629)" fill="#231f20"/>
    <g id="Group_5" data-name="Group 5" transform="translate(0 0.228)">
      <path id="Clip_4-2" data-name="Clip 4" d="M0,0H13.01V19.7H0Z" transform="translate(0 0.43)" fill="none"/>
      <g id="Group_5-2" data-name="Group 5" clip-path="url(#clip-path)">
        <path id="Fill_3" data-name="Fill 3" d="M9.171,0c.279.226.643.477.956.782.814.791,1.6,1.611,2.41,2.4a1.455,1.455,0,0,1,.473,1.119Q12.992,11.7,13,19.093c0,.173-.02.345-.036.6a1.505,1.505,0,0,1-.439-.187c-1.09-1.08-2.169-2.17-3.273-3.277V3.89H3.608L0,.264C.016.233.07.124.132,0Z" transform="translate(-0.001 0.43)" fill="#231f20"/>
      </g>
    </g>
    <path id="Fill_6" data-name="Fill 6" d="M6.358,11.441h0c-.7-.885-1.352-1.816-1.978-2.717-.392-.564-.8-1.146-1.212-1.711h-.9V8.5c0,.142,0,.283,0,.425,0,.321.006.654-.007.98-.005.141,0,.285.007.425a2.347,2.347,0,0,1-.111,1.029H.086c-.01-.061-.022-.12-.034-.176A1.736,1.736,0,0,1,0,10.839C0,7.686,0,4.314,0,.53A1.4,1.4,0,0,1,.053.22C.067.159.083.09.1.014H1.105c.29,0,.585,0,.87-.007S2.556,0,2.846,0C3.28,0,3.637.008,3.97.024A4.513,4.513,0,0,1,6.512.809,2.638,2.638,0,0,1,7.729,2.973c0,.1.009.2.015.3.009.132.019.269.015.407A2.982,2.982,0,0,1,5.9,6.43l-.053.026c-.082.039-.165.08-.245.123a.514.514,0,0,0-.079.06l-.058.048C5.9,7.308,6.36,7.93,6.8,8.532c.6.81,1.213,1.647,1.8,2.519L6.94,11.34l-.582.1ZM3.369,1.873c-.172,0-.35,0-.522.009s-.359.009-.542.009V5.345c.262.012.52.024.777.024a3.131,3.131,0,0,0,2.19-.689l.363-.725L5.6,3.738c-.048-.331-.1-.7-.156-1.068a2.064,2.064,0,0,0-1.406-.762A5.742,5.742,0,0,0,3.369,1.873Z" transform="translate(70.46 4.37)" fill="#231f20"/>
    <path id="Fill_8" data-name="Fill 8" d="M3.4,12.751A3.478,3.478,0,0,1,1.5,12.137,2.97,2.97,0,0,1,.4,10.745,5.37,5.37,0,0,1,0,8.751,5.424,5.424,0,0,1,.814,5.59,3.376,3.376,0,0,1,2.823,4.158a4.568,4.568,0,0,1,1.164-.145,7.474,7.474,0,0,1,1.868.273V.389A6.157,6.157,0,0,1,7.849,0l.04.04.034.034.01.009c.013.013.029.027.03.041l.005.088c.008.124.015.253.015.38,0,3.968,0,7.937,0,11.934a2.816,2.816,0,0,1-.678.07c-.1,0-.2,0-.3-.006s-.2-.006-.3-.006a3,3,0,0,0-.313.014,1.446,1.446,0,0,1-.32-1.033c-.085.061-.168.124-.249.184-.184.137-.358.266-.541.386A3.413,3.413,0,0,1,3.4,12.751ZM4.27,5.766c-.143,0-.306,0-.515.009a1.953,1.953,0,0,0-1.4,1.5A4.913,4.913,0,0,0,2.24,8.62c0,.07,0,.136,0,.2a2.048,2.048,0,0,0,.8,1.806,2.147,2.147,0,0,0,.89.208,2.664,2.664,0,0,0,1.726-.826,11.545,11.545,0,0,0,.151-3.888A2.542,2.542,0,0,0,4.27,5.766Z" transform="translate(87.408 3.175)" fill="#231f20"/>
    <path id="Fill_10" data-name="Fill 10" d="M2.542,8.827A2.375,2.375,0,0,1,.115,7.3C.1,7.135.078,6.986.059,6.829V6.82C.04,6.674.022,6.52,0,6.339A.384.384,0,0,0,.064,6.15a2.29,2.29,0,0,1,1.5-2.078,8.621,8.621,0,0,1,1.609-.579c.458-.111.921-.176,1.411-.244.209-.029.425-.06.643-.094V2.406l-.017-.014-.509-.414a1.454,1.454,0,0,0-.863-.255,4.391,4.391,0,0,0-.837.111c-.149.029-.3.06-.452.081a6.548,6.548,0,0,0-1.1.289c-.179.058-.363.118-.557.174L.883,2.36A.331.331,0,0,1,.8,2.209C.735,1.83.682,1.455.627,1.057L.585.759A7.279,7.279,0,0,1,3.223.118H3.3A1.4,1.4,0,0,0,3.593.076L3.676.059A.379.379,0,0,0,3.755.03a.255.255,0,0,1,.1-.03h.008A6.318,6.318,0,0,1,6.281.518a2.051,2.051,0,0,1,.973,1.364,4.863,4.863,0,0,1,.155,1.375c.017,1.46.011,2.944,0,4.38v.3c0,.042,0,.084,0,.129a.64.64,0,0,1-.23.626H5.633l-.076-.488L5.5,7.828a.3.3,0,0,0-.167-.061.409.409,0,0,0-.25.131l-.05.042A3.916,3.916,0,0,1,2.8,8.819C2.71,8.824,2.625,8.827,2.542,8.827ZM5.1,4.576a5.314,5.314,0,0,0-2.478.7,1.144,1.144,0,0,0-.534.771,1.3,1.3,0,0,0,.406.971,2.669,2.669,0,0,0,.821.133,2.373,2.373,0,0,0,1.935-.989V4.581C5.21,4.578,5.161,4.576,5.1,4.576Z" transform="translate(79.31 7.071)" fill="#231f20"/>
    <path id="Fill_12" data-name="Fill 12" d="M3.737,2.036C2.472,1.989,1.3,2.049.161,2A3.093,3.093,0,0,1,.145.08c.657-.124,9.42-.1,9.919.038.147.592.3,1.2.468,1.885-1.509.033-2.985,0-4.506.021V11.27a5.2,5.2,0,0,1-2.253-.008C3.7,9.758,3.749,8.227,3.739,6.7s0-3.068,0-4.663" transform="translate(33.393 4.376)" fill="#231f20"/>
    <path id="Fill_14" data-name="Fill 14" d="M7.475,8.529h-1.7L5.412,7.416A5.441,5.441,0,0,1,3.094,8.642,2.429,2.429,0,0,1,.012,6.272C-.012,4.221.007,2.17.007.1A2.455,2.455,0,0,1,1.06.012c.329-.015.661,0,1.033,0,.019.206.047.376.048.545,0,1.673,0,3.346,0,5.019a1.947,1.947,0,0,0,.04.528,1.046,1.046,0,0,0,1.323.707,3.2,3.2,0,0,0,1.82-1.136V.13a4.623,4.623,0,0,1,2.11,0C7.521,1.5,7.461,2.9,7.472,4.3c.011,1.378,0,2.757,0,4.233" transform="translate(99.781 7.185)" fill="#231f20"/>
    <path id="Fill_16" data-name="Fill 16" d="M7.412,8.557H5.929A1.2,1.2,0,0,1,5.6,7.49c-.2.065-.363.07-.451.154a3.9,3.9,0,0,1-2.176,1.03A2.433,2.433,0,0,1,.215,7.234a3.172,3.172,0,0,1-.2-1.16C-.009,4.135,0,2.2.006.256A1.023,1.023,0,0,1,.061.042H2.089c.015.166.045.335.046.5,0,1.56.013,3.121,0,4.68A2.661,2.661,0,0,0,2.493,6.6c1.1.421,1.811.194,2.841-.925V.1A2.409,2.409,0,0,1,6.385.013c.33-.016.661,0,.981,0,.127.506.163,7.536.046,8.548" transform="translate(48.461 7.185)" fill="#231f20"/>
    <path id="Fill_18" data-name="Fill 18" d="M6.411.6c-.07.608-.135,1.172-.207,1.8C4.92,1.892,3.665,1.376,2.275,1.955v.809a2.988,2.988,0,0,0,1.278.578,11.706,11.706,0,0,1,1.515.431A2.724,2.724,0,0,1,6.9,5.5V6.8c-.013.04-.019.06-.027.081A2.752,2.752,0,0,1,4.516,8.727,7.1,7.1,0,0,1,0,7.982c.1-.57.188-1.1.289-1.689.407.166.8.3,1.162.479a6.05,6.05,0,0,0,1.978.436,3.064,3.064,0,0,0,1.03-.167.584.584,0,0,0,.433-.532,4,4,0,0,0,0-.535c-.407-.528-1.031-.567-1.584-.75-.6-.2-1.227-.343-1.812-.584A2.424,2.424,0,0,1,.221,3.147,6.534,6.534,0,0,1,.3,1.911,2.442,2.442,0,0,1,2.383.127,7.323,7.323,0,0,1,6.411.6" transform="translate(108.084 7.065)" fill="#231f20"/>
    <path id="Fill_20" data-name="Fill 20" d="M0,8.031C.115,7.39.209,6.854.31,6.286a1.024,1.024,0,0,1,.336.083A4.179,4.179,0,0,0,2.735,7.1a2.151,2.151,0,0,1,.321.067,1.944,1.944,0,0,0,1.8-.45c.084-.748-.046-1.006-.665-1.216-.558-.19-1.132-.333-1.7-.49A4.751,4.751,0,0,1,.756,4.171a2.8,2.8,0,0,1-.627-1.7,8.16,8.16,0,0,1,.228-.785A2.535,2.535,0,0,1,2.236.153,6.6,6.6,0,0,1,5.981.469a2.581,2.581,0,0,1,.392.217A4.858,4.858,0,0,1,6.04,2.429,5.266,5.266,0,0,0,2.6,1.77c-.431.378-.431.378-.465.8.273.558.852.587,1.334.76.618.22,1.273.342,1.883.58A2.411,2.411,0,0,1,6.793,6.935,2.307,2.307,0,0,1,5.5,8.417a4.926,4.926,0,0,1-3.029.335,5.637,5.637,0,0,1-1.214-.273C.858,8.306.437,8.184,0,8.031" transform="translate(56.743 7.063)" fill="#231f20"/>
    <path id="Fill_22" data-name="Fill 22" d="M3.477,4.684c0,1.457,0,2.793,0,4.13a1.021,1.021,0,0,0,.986.975h.794c.335.508.2,1.116.418,1.708a7.733,7.733,0,0,1-1.482.151A3.621,3.621,0,0,1,2.371,11.2a1.915,1.915,0,0,1-.9-1.665c-.009-1.383,0-2.766,0-4.15V4.715H.032A5.615,5.615,0,0,1,.1,2.974H1.441V.516C2.058.142,2.768.315,3.388,0a4.943,4.943,0,0,1,.083,1.475c.019.465,0,.931,0,1.421.589.166,1.175-.033,1.788.139l.364,1.65Z" transform="translate(63.919 4.233)" fill="#231f20"/>
    <path id="Fill_24" data-name="Fill 24" d="M5.007,2.066A3.935,3.935,0,0,0,1.966,3.882V8.611A15.2,15.2,0,0,1,0,8.68V.17A5.754,5.754,0,0,1,1.507.116c.126.565.249,1.115.382,1.713A3.593,3.593,0,0,1,4.548,0C4.709.721,4.854,1.377,5.007,2.066Z" transform="translate(42.632 7.093)" fill="#231f20"/>
    <path id="Fill_26" data-name="Fill 26" d="M1.914,8.549H0V.087A2.289,2.289,0,0,1,.954.013c.307-.015.616,0,.913,0,.125.507.162,7.541.047,8.539" transform="translate(96.622 7.184)" fill="#231f20"/>
    <path id="Fill_28" data-name="Fill 28" d="M1.329,2.454.6,2.227.126,1.72C.088,1.542.047,1.351,0,1.129.237.118.7-.1,1.752.039l.515.489c.066.2.137.4.217.636l-.341.886-.815.4" transform="translate(96.38 3.57)" fill="#231f20"/>
  </g>
</svg>
