<?xml version="1.0" encoding="UTF-8"?><svg id="Layer_1" xmlns="http://www.w3.org/2000/svg" viewBox="0 0 33.5 33.5"><defs><style>.cls-1{fill:#fff;}</style></defs><path class="cls-1" d="m16.8,33.5C7.52,33.5,0,25.98,0,16.7,0,12.25,1.77,7.97,4.92,4.82c6.61-6.51,17.25-6.42,23.76.19,6.43,6.54,6.43,17.03,0,23.56-3.14,3.16-7.42,4.93-11.88,4.92Zm1.63-18.13l6.56-7.62h-1.55l-5.69,6.62-4.55-6.62h-5.24l6.88,10.01-6.88,7.99h1.55l6.01-6.99,4.8,6.99h5.24l-7.13-10.38h0Zm-2.13,2.47l-.7-1-5.54-7.93h2.39l4.47,6.4.7,1,5.82,8.32h-2.39l-4.75-6.79h0Z"/></svg>