<?xml version="1.0" encoding="UTF-8"?><svg id="Layer_1" xmlns="http://www.w3.org/2000/svg" viewBox="0 0 33.5 33.5"><defs><style>.cls-1{fill:#fff;}</style></defs><path class="cls-1" d="m28.68,5.02c-6.51-6.61-17.14-6.7-23.76-.19C1.77,7.97,0,12.25,0,16.7c0,9.28,7.52,16.8,16.8,16.8,4.46.01,8.74-1.76,11.88-4.92,6.43-6.54,6.43-17.03,0-23.56Zm-2.57,16.44c-.23.84-.89,1.5-1.73,1.73-1.52.41-7.63.41-7.63.41,0,0-6.11,0-7.63-.41-.84-.23-1.5-.89-1.73-1.73-.41-1.52-.41-4.7-.41-4.7,0,0,0-3.18.41-4.7.23-.84.89-1.5,1.73-1.73,1.52-.41,7.63-.41,7.63-.41,0,0,6.11,0,7.63.41.84.23,1.5.89,1.73,1.73.41,1.52.41,4.7.41,4.7,0,0,0,3.18-.41,4.7Z"/><polygon class="cls-1" points="14.79 19.68 19.87 16.75 14.79 13.82 14.79 19.68"/></svg>